<svg width="200" height="200" viewBox="0 0 200 200" xmlns="http://www.w3.org/2000/svg">
  <!-- Elephant body -->
  <ellipse cx="100" cy="120" rx="50" ry="45" fill="#9BA3AF"/>
  
  <!-- Elephant head -->
  <circle cx="100" cy="70" r="40" fill="#9BA3AF"/>
  
  <!-- Ears -->
  <ellipse cx="65" cy="65" rx="25" ry="35" fill="#9BA3AF"/>
  <ellipse cx="135" cy="65" rx="25" ry="35" fill="#9BA3AF"/>
  <ellipse cx="65" cy="65" rx="18" ry="28" fill="#FFC0CB"/>
  <ellipse cx="135" cy="65" rx="18" ry="28" fill="#FFC0CB"/>
  
  <!-- Trunk -->
  <path d="M 100 85 Q 95 95 95 105 Q 95 115 100 125 Q 105 135 105 145" 
        stroke="#9BA3AF" stroke-width="12" fill="none" stroke-linecap="round"/>
  
  <!-- Eyes -->
  <circle cx="85" cy="65" r="8" fill="#2D3748"/>
  <circle cx="115" cy="65" r="8" fill="#2D3748"/>
  <circle cx="87" cy="63" r="3" fill="white"/>
  <circle cx="117" cy="63" r="3" fill="white"/>
  
  <!-- Smile -->
  <path d="M 85 78 Q 100 85 115 78" stroke="#2D3748" stroke-width="2" fill="none" stroke-linecap="round"/>
  
  <!-- Pink cheeks -->
  <circle cx="70" cy="75" r="6" fill="#FFC0CB" opacity="0.6"/>
  <circle cx="130" cy="75" r="6" fill="#FFC0CB" opacity="0.6"/>
</svg>
